<svg width="22" height="14" viewBox="0 0 22 14" fill="none" xmlns="http://www.w3.org/2000/svg">
<path d="M18.1492 10.1926C17.1181 10.1926 16.2793 11.0317 16.2793 12.0625C16.2793 13.0936 17.1181 13.9325 18.1492 13.9325C19.1801 13.9325 20.0191 13.0936 20.0191 12.0625C20.0191 11.0317 19.1801 10.1926 18.1492 10.1926ZM18.1492 12.6125C17.8459 12.6125 17.5992 12.3659 17.5992 12.0625C17.5992 11.7592 17.8459 11.5126 18.1492 11.5126C18.4526 11.5126 18.6992 11.7592 18.6992 12.0625C18.6992 12.3659 18.4526 12.6125 18.1492 12.6125Z" fill="black"/>
<path d="M17.9696 2.41968H14.7388C14.4957 2.41968 14.2988 2.61681 14.2988 2.85966V11.4393C14.2988 11.6821 14.4957 11.8793 14.7388 11.8793H15.2054C15.4232 11.8793 15.6161 11.7224 15.6443 11.5064C15.817 10.1834 16.8723 9.36282 18.1489 9.36282C19.4255 9.36282 20.4808 10.1834 20.6535 11.5064C20.6816 11.7224 20.8743 11.8793 21.0923 11.8793H21.5585C21.8013 11.8793 21.9985 11.6821 21.9985 11.4393V7.14948C21.9985 7.04609 21.9622 6.9462 21.8959 6.86723L18.307 2.57741C18.2235 2.47755 18.0998 2.41968 17.9696 2.41968ZM15.1788 5.93953V3.73962C15.1788 3.49677 15.3757 3.29964 15.6188 3.29964H17.5569C17.6873 3.29964 17.8112 3.35773 17.8948 3.45802L19.728 5.65792C19.9666 5.94456 19.7629 6.37951 19.3899 6.37951H15.6188C15.3757 6.37951 15.1788 6.18263 15.1788 5.93953Z" fill="black"/>
<path d="M0.439981 11.8795H1.56657C1.78437 11.8795 1.97729 11.7226 2.00544 11.5066C2.17812 10.1836 3.23343 9.36304 4.51002 9.36304C5.78662 9.36304 6.84192 10.1836 7.01461 11.5066C7.04275 11.7227 7.23546 11.8795 7.45348 11.8795H12.9794C13.2223 11.8795 13.4194 11.6824 13.4194 11.4395V0.439981C13.4194 0.197129 13.2223 0 12.9794 0H0.439981C0.196877 0 0 0.197129 0 0.439981V11.4395C0 11.6824 0.196877 11.8795 0.439981 11.8795Z" fill="black"/>
<path d="M4.50957 10.1926C3.47849 10.1926 2.63965 11.0317 2.63965 12.0625C2.63965 13.0936 3.47849 13.9325 4.50957 13.9325C5.54043 13.9325 6.37949 13.0936 6.37949 12.0625C6.37949 11.0317 5.54043 10.1926 4.50957 10.1926ZM4.50957 12.6125C4.20622 12.6125 3.95959 12.3659 3.95959 12.0625C3.95959 11.7592 4.20622 11.5126 4.50957 11.5126C4.81292 11.5126 5.05954 11.7592 5.05954 12.0625C5.05954 12.3659 4.81292 12.6125 4.50957 12.6125Z" fill="black"/>
</svg>
