<svg width="15" height="17" viewBox="0 0 15 17" fill="none" xmlns="http://www.w3.org/2000/svg">
<path d="M12 11.0234C11.195 11.0234 10.4631 11.341 9.92373 11.8568L6.71527 9.87683C6.89833 9.45422 7 8.98875 7 8.5C7 8.01125 6.89833 7.54578 6.71523 7.1232L9.9237 5.1432C10.4631 5.65901 11.195 5.97656 12 5.97656C13.6542 5.97656 15 4.63602 15 2.98828C15 1.34054 13.6542 0 12 0C10.3458 0 9 1.34054 9 2.98828C9 3.47474 9.11737 3.9344 9.32527 4.34071L6.1919 6.27439C5.54937 5.50461 4.5812 5.01367 3.5 5.01367C1.5701 5.01367 0 6.57764 0 8.5C0 10.4224 1.5701 11.9863 3.5 11.9863C4.5812 11.9863 5.54937 11.4954 6.1919 10.7256L9.32527 12.6593C9.11737 13.0656 9 13.5253 9 14.0117C9 15.6595 10.3458 17 12 17C13.6542 17 15 15.6595 15 14.0117C15 12.364 13.6542 11.0234 12 11.0234Z" fill="black"/>
</svg>
