<svg width="12" height="14" viewBox="0 0 12 14" fill="none" xmlns="http://www.w3.org/2000/svg">
<path d="M7.55979 2.1881C8.03073 1.59905 8.35025 0.808195 8.26604 0C7.57667 0.0342965 6.73543 0.454838 6.2484 1.04429C5.81106 1.54912 5.42403 2.3731 5.52497 3.14739C6.29871 3.2145 7.07191 2.7606 7.55979 2.1881Z" fill="white"/>
<path d="M8.25721 3.29855C7.1334 3.2316 6.17786 3.93636 5.64115 3.93636C5.1042 3.93636 4.28233 3.3323 3.39343 3.34855C2.23649 3.36558 1.16299 4.01972 0.575884 5.0601C-0.631682 7.1414 0.257216 10.2287 1.4315 11.9238C2.00173 12.7624 2.68907 13.6858 3.5946 13.6526C4.45022 13.619 4.78561 13.0985 5.8256 13.0985C6.86488 13.0985 7.16699 13.6526 8.07269 13.6358C9.01197 13.619 9.59916 12.7967 10.1694 11.9573C10.8236 11.0013 11.0914 10.0782 11.1082 10.0275C11.0913 10.0108 9.29705 9.3224 9.28041 7.25844C9.26345 5.53025 10.6891 4.70815 10.7563 4.65721C9.95126 3.4666 8.6933 3.3323 8.25721 3.29855Z" fill="white"/>
</svg>
