<svg width="23" height="23" viewBox="0 0 23 23" fill="none" xmlns="http://www.w3.org/2000/svg">
<path d="M9.58333 22.8722C4.15278 21.9139 0 17.1861 0 11.5C0 5.175 5.175 0 11.5 0C17.825 0 23 5.175 23 11.5C23 17.1861 18.8472 21.9139 13.4167 22.8722L12.7778 22.3611H10.2222L9.58333 22.8722Z" fill="url(#paint0_linear_1_1255)"/>
<path d="M15.9719 14.6949L16.483 11.5004H13.4163V9.26432C13.4163 8.36988 13.7358 7.6671 15.1413 7.6671H16.6108V4.72821C15.7802 4.60043 14.8858 4.47266 14.0552 4.47266C11.4358 4.47266 9.58301 6.06988 9.58301 8.94488V11.5004H6.70801V14.6949H9.58301V22.8088C10.2219 22.9365 10.8608 23.0004 11.4997 23.0004C12.1386 23.0004 12.7775 22.9365 13.4163 22.8088V14.6949H15.9719Z" fill="white"/>
<defs>
<linearGradient id="paint0_linear_1_1255" x1="11.5" y1="22.2039" x2="11.5" y2="0" gradientUnits="userSpaceOnUse">
<stop stop-color="#0062E0"/>
<stop offset="1" stop-color="#19AFFF"/>
</linearGradient>
</defs>
</svg>
