<svg width="20" height="18" viewBox="0 0 20 18" fill="none" xmlns="http://www.w3.org/2000/svg">
<path d="M7.53406 17.8725C6.47604 17.8725 5.61523 17.0117 5.61523 15.9537C5.61523 14.8957 6.47604 14.0352 7.53406 14.0352C8.59208 14.0352 9.45289 14.8957 9.45289 15.9537C9.45289 17.0117 8.59208 17.8725 7.53406 17.8725ZM7.53406 15.2395C7.14024 15.2395 6.81958 15.5599 6.81958 15.9537C6.81958 16.3478 7.13994 16.6682 7.53406 16.6682C7.92818 16.6682 8.24854 16.3478 8.24854 15.9537C8.24854 15.5599 7.92818 15.2395 7.53406 15.2395Z" fill="white"/>
<path d="M14.2042 17.8723C13.1462 17.8723 12.2856 17.0115 12.2856 15.9534C12.2856 14.8954 13.1462 14.0349 14.2042 14.0349C15.2622 14.0349 16.123 14.8954 16.123 15.9534C16.123 17.0115 15.2619 17.8723 14.2042 17.8723ZM14.2042 15.2393C13.8103 15.2393 13.49 15.5596 13.49 15.9534C13.49 16.3476 13.8103 16.6679 14.2042 16.6679C14.5983 16.6679 14.9186 16.3476 14.9186 15.9534C14.9186 15.5596 14.598 15.2393 14.2042 15.2393Z" fill="white"/>
<path d="M15.6095 12.5472H6.14969C5.22927 12.5472 4.44313 11.9206 4.23779 11.0234L2.27441 2.44934C2.24851 2.33613 2.17023 2.23918 2.06485 2.1904L0.436274 1.43558C0.059313 1.26095 -0.104779 0.813535 0.0698511 0.436274C0.244481 0.059313 0.692197 -0.104779 1.06916 0.0698511L2.69774 0.824675C3.22253 1.06765 3.61304 1.54939 3.7419 2.11333L5.70529 10.688C5.75286 10.8963 5.93562 11.0421 6.14969 11.0421H15.6095C15.8227 11.0421 16.0052 10.8972 16.0539 10.6895L17.5804 4.12188C17.6241 3.9352 17.5446 3.79941 17.4937 3.73528C17.4426 3.67085 17.3281 3.56306 17.1366 3.56306H5.99644C5.58064 3.56306 5.24372 3.22614 5.24372 2.81034C5.24372 2.39454 5.58064 2.05763 5.99644 2.05763H17.1366C17.7385 2.05763 18.2979 2.3277 18.6725 2.7989C19.047 3.2701 19.1831 3.87649 19.047 4.46271L17.5202 11.0306C17.3122 11.9233 16.5266 12.5472 15.6095 12.5472Z" fill="white"/>
</svg>
