<svg width="22" height="21" viewBox="0 0 22 21" fill="none" xmlns="http://www.w3.org/2000/svg">
<path d="M10.75 13.1897C12.4069 13.1897 13.75 11.8466 13.75 10.1897C13.75 8.53284 12.4069 7.1897 10.75 7.1897C9.09315 7.1897 7.75 8.53284 7.75 10.1897C7.75 11.8466 9.09315 13.1897 10.75 13.1897Z" stroke="black" stroke-width="1.5" stroke-miterlimit="10" stroke-linecap="round" stroke-linejoin="round"/>
<path d="M0.75 11.0696V9.30963C0.75 8.26963 1.6 7.40963 2.65 7.40963C4.46 7.40963 5.2 6.12963 4.29 4.55963C3.77 3.65963 4.08 2.48963 4.99 1.96963L6.72 0.979634C7.51 0.509634 8.53 0.789634 9 1.57963L9.11 1.76963C10.01 3.33963 11.49 3.33963 12.4 1.76963L12.51 1.57963C12.98 0.789634 14 0.509634 14.79 0.979634L16.52 1.96963C17.43 2.48963 17.74 3.65963 17.22 4.55963C16.31 6.12963 17.05 7.40963 18.86 7.40963C19.9 7.40963 20.76 8.25963 20.76 9.30963V11.0696C20.76 12.1096 19.91 12.9696 18.86 12.9696C17.05 12.9696 16.31 14.2496 17.22 15.8196C17.74 16.7296 17.43 17.8896 16.52 18.4096L14.79 19.3996C14 19.8696 12.98 19.5896 12.51 18.7996L12.4 18.6096C11.5 17.0396 10.02 17.0396 9.11 18.6096L9 18.7996C8.53 19.5896 7.51 19.8696 6.72 19.3996L4.99 18.4096C4.08 17.8896 3.77 16.7196 4.29 15.8196C5.2 14.2496 4.46 12.9696 2.65 12.9696C1.6 12.9696 0.75 12.1096 0.75 11.0696Z" stroke="black" stroke-width="1.5" stroke-miterlimit="10" stroke-linecap="round" stroke-linejoin="round"/>
</svg>
