<svg width="20" height="23" viewBox="0 0 20 23" fill="none" xmlns="http://www.w3.org/2000/svg">
<path fill-rule="evenodd" clip-rule="evenodd" d="M17.6998 19.622C18.3745 18.5928 18.6261 18.0668 19.1406 16.9119C15.3443 15.4712 14.7382 10.0625 18.4888 7.99279C17.3454 6.55201 15.7331 5.71729 14.2122 5.71729C13.1145 5.71729 12.3598 6.00317 11.6852 6.26617C11.1134 6.48343 10.5989 6.6778 9.95851 6.6778C9.27242 6.6778 8.66638 6.46056 8.02603 6.23186C7.32851 5.9803 6.59668 5.71729 5.6819 5.71729C3.97812 5.71729 2.16 6.75785 1.00508 8.54167C-0.618652 11.0573 -0.33278 15.7684 2.28578 19.7935C3.22343 21.2343 4.48126 22.8466 6.11643 22.8694C6.80251 22.8809 7.24847 22.6751 7.74016 22.4578C8.30046 22.2062 8.9065 21.9318 9.96994 21.9318C11.0334 21.9203 11.628 22.2062 12.1883 22.4578C12.6685 22.6751 13.1031 22.8809 13.7777 22.8694C15.4358 22.8466 16.7622 21.0627 17.6998 19.622Z" fill="black"/>
<path fill-rule="evenodd" clip-rule="evenodd" d="M13.9706 0C14.1536 1.25782 13.639 2.50423 12.9643 3.37327C12.244 4.31092 10.9861 5.04273 9.77405 4.99699C9.55679 3.7849 10.1171 2.53851 10.8032 1.70377C11.5693 0.788988 12.8614 0.0800434 13.9706 0Z" fill="black"/>
</svg>
