<svg width="20" height="20" viewBox="0 0 20 20" fill="none" xmlns="http://www.w3.org/2000/svg">
<path d="M16.7822 6.12165L7.2182 1.36539C0.793789 -1.83508 -1.84302 0.787527 1.37478 7.17736L2.34682 9.11098C2.62614 9.67773 2.62614 10.3334 2.34682 10.9001L1.37478 12.8226C-1.84302 19.2125 0.782616 21.8351 7.2182 18.6346L16.7822 13.8784C21.0726 11.7447 21.0726 8.2553 16.7822 6.12165ZM13.1734 10.8335H7.13999C6.68191 10.8335 6.30203 10.4556 6.30203 10C6.30203 9.54438 6.68191 9.16654 7.13999 9.16654H13.1734C13.6314 9.16654 14.0113 9.54438 14.0113 10C14.0113 10.4556 13.6314 10.8335 13.1734 10.8335Z" fill="black"/>
</svg>
