<svg width="18" height="16" viewBox="0 0 18 16" fill="none" xmlns="http://www.w3.org/2000/svg">
<path d="M0.600098 4.19031V12.0544C0.600098 13.59 1.6912 14.2204 3.0167 13.4607L4.91603 12.3777C5.32823 12.1433 6.01522 12.119 6.44358 12.3372L10.6868 14.4629C11.1151 14.673 11.8021 14.6569 12.2143 14.4225L15.714 12.4181C16.1585 12.1594 16.5303 11.529 16.5303 11.0118V3.1477C16.5303 1.61207 15.4392 0.98165 14.1137 1.74138L12.2143 2.82441C11.8021 3.05879 11.1151 3.08304 10.6868 2.86482L6.44358 0.747264C6.01522 0.537125 5.32823 0.553289 4.91603 0.787675L1.41641 2.79208C0.9638 3.05071 0.600098 3.68113 0.600098 4.19031Z" stroke="white" stroke-width="1.2" stroke-linecap="round" stroke-linejoin="round"/>
<path d="M5.66748 1.13501V11.642" stroke="white" stroke-width="1.2" stroke-linecap="round" stroke-linejoin="round"/>
<path d="M11.4634 3.25269V14.0668" stroke="white" stroke-width="1.2" stroke-linecap="round" stroke-linejoin="round"/>
</svg>
