<svg width="61" height="70" viewBox="0 0 61 70" fill="none" xmlns="http://www.w3.org/2000/svg">
<path d="M25.3653 2.76729L8.8974 8.97165C5.10218 10.3907 2 14.879 2 18.9052V43.4256C2 47.3199 4.57415 52.4351 7.70933 54.7783L21.9001 65.3719C26.5534 68.8701 34.2099 68.8701 38.8631 65.3719L53.0539 54.7783C56.1891 52.4351 58.7633 47.3199 58.7633 43.4256V18.9052C58.7633 14.846 55.6611 10.3577 51.8659 8.93865L35.3979 2.76729C32.5928 1.74424 28.1045 1.74424 25.3653 2.76729Z" stroke="black" stroke-width="4" stroke-linecap="round" stroke-linejoin="round"/>
<path d="M30.3484 36.6575C33.9937 36.6575 36.9488 33.7025 36.9488 30.0572C36.9488 26.4119 33.9937 23.4568 30.3484 23.4568C26.7031 23.4568 23.748 26.4119 23.748 30.0572C23.748 33.7025 26.7031 36.6575 30.3484 36.6575Z" stroke="black" stroke-width="4" stroke-miterlimit="10" stroke-linecap="round" stroke-linejoin="round"/>
<path d="M30.3486 36.6578V46.5584" stroke="black" stroke-width="4" stroke-miterlimit="10" stroke-linecap="round" stroke-linejoin="round"/>
</svg>
