<svg width="24" height="16" viewBox="0 0 24 16" fill="none" xmlns="http://www.w3.org/2000/svg">
<path d="M23.2005 14.6286C23.2005 15.386 22.5865 16.0001 21.8291 16.0001H1.37141C0.613998 16.0001 0 15.386 0 14.6286V1.37146C0 0.614044 0.613998 0 1.37141 0H21.8291C22.5866 0 23.2005 0.614044 23.2005 1.37146V14.6286Z" fill="#306FC5"/>
<path opacity="0.15" d="M0.975011 14.6286V1.37146C0.975011 0.614044 1.5891 0 2.34652 0H1.37137C0.613998 0 0 0.613999 0 1.37146V14.6286C0 15.3861 0.613998 16.0001 1.37141 16.0001H2.34656C1.58915 16.0001 0.975011 15.386 0.975011 14.6286Z" fill="#202121"/>
<path d="M3.38086 6.40276H4.07407L3.72755 5.52051L3.38086 6.40276Z" fill="white"/>
<path d="M7.06738 9.36426V9.77394H8.23326V10.2152H7.06738V10.6879H8.35923L8.95786 10.0261L8.39076 9.36426H7.06738Z" fill="white"/>
<path d="M16.1731 5.52051L15.7949 6.40276H16.5197L16.1731 5.52051Z" fill="white"/>
<path d="M10.4384 10.9395V9.14355L9.61914 10.0259L10.4384 10.9395Z" fill="white"/>
<path d="M11.983 9.64797C11.9514 9.45892 11.8253 9.36426 11.6361 9.36426H10.9746V9.9314H11.6679C11.8569 9.93145 11.983 9.83697 11.983 9.64797Z" fill="white"/>
<path d="M14.1879 9.86866C14.2509 9.83708 14.2825 9.74246 14.2825 9.64812C14.3141 9.52219 14.2509 9.45907 14.1879 9.42753C14.125 9.396 14.0304 9.396 13.936 9.396H13.3057V9.9002H13.9359C14.0303 9.9002 14.125 9.9002 14.1879 9.86866Z" fill="white"/>
<path d="M18.7252 4.70117V5.07927L18.5362 4.70117H17.0555V5.07927L16.8664 4.70117H14.8498C14.5033 4.70117 14.2195 4.76425 13.9676 4.89027V4.70117H12.5498V4.73271V4.89027C12.3923 4.76429 12.2032 4.70117 11.9511 4.70117H6.8783L6.53156 5.4889L6.18504 4.70117H5.0508H4.57814V5.07927L4.42058 4.70117H4.38904H3.03421L2.40395 6.18202L1.67934 7.78893L1.66602 7.82051H1.67934H3.28629H3.30641L3.31783 7.78893L3.50697 7.3164H3.91656L4.10561 7.82051H5.93292V7.78893V7.44241L6.09057 7.82047H7.00422L7.16169 7.44241V7.78893V7.82051H7.88639H11.5099H11.5414V7.00124H11.6046C11.6675 7.00124 11.6675 7.00124 11.6675 7.09581V7.78897H13.9362V7.59993C14.1252 7.69459 14.4086 7.78897 14.7867 7.78897H15.7321L15.9212 7.28495H16.3621L16.5512 7.78897H18.3786V7.47395V7.31644L18.6623 7.78897H18.7252H18.7568H20.1432V4.70117H18.7253H18.7252ZM8.04403 7.34798H7.72888H7.53987V7.15907V5.61496L7.50834 5.68724V5.68638L6.77534 7.34798H6.75214H6.58362H6.31097L5.55482 5.61496V7.34798H4.48361L4.26307 6.87536H3.19168L2.97109 7.34798H2.41722L3.34932 5.14234H4.13696L5.01917 7.25337V5.14234H5.20818H5.85394L5.8688 5.17393H5.86989L6.26743 6.03915L6.5529 6.6874L6.563 6.65473L7.19314 5.14239H8.04399V7.34798H8.04403ZM10.2182 5.61496H8.98932V6.02455H10.1866V6.46564H8.98932V6.9069H10.2182V7.37938H8.45371V5.14239H10.2182V5.61496ZM12.4655 6.42744C12.4663 6.42816 12.4674 6.42866 12.4684 6.42934C12.4803 6.44194 12.4905 6.45458 12.4992 6.46668C12.5595 6.5458 12.6083 6.66348 12.6108 6.83603C12.611 6.83902 12.6111 6.84196 12.6113 6.84496C12.6113 6.84668 12.6116 6.84817 12.6116 6.84994C12.6116 6.85094 12.6115 6.85171 12.6115 6.85266C12.6122 6.87001 12.6127 6.88773 12.6127 6.9069V7.34803H12.1402V7.09586C12.1402 6.96984 12.1402 6.78075 12.0455 6.65473C12.0157 6.62496 11.9856 6.60534 11.9528 6.59138C11.9056 6.56079 11.8161 6.5603 11.6675 6.5603H11.1002V7.34803H10.5647V5.14239H11.7621C12.0455 5.14239 12.2346 5.14239 12.3922 5.23691C12.5466 5.32963 12.6399 5.48337 12.6434 5.72684C12.6361 6.06216 12.4209 6.24614 12.2661 6.30817C12.2661 6.30817 12.3712 6.32933 12.4655 6.42744ZM13.5265 7.34798H12.9908V5.14234H13.5265V7.34798ZM19.6707 7.34798H18.9774L17.9691 5.67795V7.06432L17.9658 7.06106V7.34934H17.4335V7.34803H16.8978L16.7088 6.87541H15.6059L15.4169 7.37943H14.8182C14.5663 7.37943 14.251 7.31649 14.0621 7.12744C13.873 6.93839 13.7786 6.68631 13.7786 6.27677C13.7786 5.9617 13.8415 5.64641 14.0621 5.39442C14.2195 5.20524 14.5032 5.14239 14.8497 5.14239H15.354V5.61496H14.8497C14.6607 5.61496 14.5663 5.64637 14.44 5.74107C14.3457 5.83555 14.2826 6.02455 14.2826 6.2451C14.2826 6.49722 14.3142 6.65473 14.44 6.78075C14.5348 6.87541 14.6607 6.90694 14.8182 6.90694H15.0388L15.7634 5.17402H16.0786H16.5512L17.4335 7.28504V7.17738V6.46573V6.40279V5.17406H18.2211L19.1347 6.7179V5.17406H19.6706V7.34807H19.6707V7.34798Z" fill="white"/>
<path d="M12.0166 6.06126C12.0258 6.05142 12.0342 6.04028 12.0412 6.0275C12.0698 5.98232 12.1025 5.90094 12.0849 5.78987C12.0842 5.77968 12.0823 5.77025 12.0801 5.76114C12.0795 5.75861 12.0796 5.75639 12.079 5.75385L12.0786 5.75389C12.063 5.69993 12.0229 5.66676 11.983 5.64664C11.9199 5.61523 11.8253 5.61523 11.7309 5.61523H11.1006V6.11944H11.7309C11.8253 6.11944 11.9199 6.11944 11.983 6.08785C11.9925 6.08305 12.0009 6.07653 12.009 6.06914L12.0091 6.06955C12.0091 6.06955 12.0124 6.06615 12.0166 6.06126Z" fill="white"/>
<path d="M21.5291 10.4989C21.5291 10.2784 21.4661 10.0578 21.3717 9.90026V8.48245H21.3702V8.38779C21.3702 8.38779 20.0496 8.38779 19.853 8.38779C19.6565 8.38779 19.4181 8.57679 19.4181 8.57679V8.38779H17.9688C17.7481 8.38779 17.4647 8.45086 17.3385 8.57679V8.38779H14.7549V8.48245V8.57674C14.566 8.41932 14.2191 8.38774 14.0617 8.38774H12.3602V8.4824V8.5767C12.2027 8.41928 11.8244 8.3877 11.6353 8.3877H9.74508L9.30386 8.86036L8.89422 8.3877H8.76232H8.54767H6.05859V8.48235V8.73126V11.5702H8.83133L9.28691 11.1145L9.68182 11.5702H9.71345H11.3111H11.3835H11.4151H11.4464V11.2551V10.8455H11.6041C11.8244 10.8455 12.1081 10.8455 12.3287 10.7509V11.5385V11.6017H13.7466V11.5385V10.7824H13.8094C13.9041 10.7824 13.9041 10.7824 13.9041 10.8769V11.5385V11.6017H18.1891C18.4729 11.6017 18.7563 11.5385 18.9138 11.4125V11.5385V11.6017H20.2687C20.5521 11.6017 20.8359 11.5702 21.025 11.4441C21.3151 11.27 21.4979 10.962 21.5251 10.5945C21.5264 10.5836 21.528 10.5728 21.529 10.5618L21.5271 10.5601C21.5283 10.5397 21.5291 10.5195 21.5291 10.4989ZM11.6041 10.3099H10.9738V10.4042V10.5934V10.7825V11.1291H9.93816L9.3354 10.4358L9.33331 10.4381L9.30386 10.4042L8.6107 11.1291H6.5942V8.92353H8.64224L9.20177 9.53639L9.3194 9.66472L9.33535 9.64818L9.99711 8.92357H11.667C11.9911 8.92357 12.354 9.00355 12.4915 9.3333C12.5081 9.3986 12.5177 9.47119 12.5177 9.55366C12.5177 10.1838 12.0765 10.3099 11.6041 10.3099ZM14.7549 10.2784C14.8178 10.3727 14.8494 10.4989 14.8494 10.688V11.129H14.3138V10.8455C14.3138 10.7193 14.3138 10.4989 14.2192 10.4042C14.1563 10.3099 14.0301 10.3099 13.8412 10.3099H13.2741V11.1291H12.7385V8.89199H13.9357C14.1876 8.89199 14.4082 8.89199 14.566 8.98642C14.7234 9.08104 14.8494 9.23859 14.8494 9.49067C14.8494 9.83719 14.6289 10.0262 14.4713 10.0894C14.6289 10.1521 14.7234 10.2153 14.7549 10.2784ZM16.929 9.36443H15.7V9.77406H16.8974V10.2153H15.7V10.6565H16.929V11.129H15.1646V8.89194H16.929V9.36443ZM18.2523 11.1291H17.244V10.6565H18.2523C18.3466 10.6565 18.4098 10.6565 18.473 10.5934C18.5045 10.5618 18.5358 10.4989 18.5358 10.4359C18.5358 10.3727 18.5045 10.31 18.473 10.2784C18.4413 10.2469 18.3782 10.2154 18.2837 10.2154C17.7796 10.1838 17.1809 10.2154 17.1809 9.52226C17.1809 9.20715 17.37 8.8605 17.9372 8.8605H18.9769V9.39606H18.0002C17.9057 9.39606 17.8426 9.39606 17.7795 9.4276C17.7167 9.45918 17.7167 9.52226 17.7167 9.5852C17.7167 9.67977 17.7795 9.7113 17.8426 9.74257C17.9057 9.77415 17.9687 9.77415 18.0316 9.77415H18.3152C18.5988 9.77415 18.7878 9.83718 18.9139 9.96325C19.0084 10.0578 19.0715 10.2154 19.0715 10.4359C19.0715 10.9084 18.7879 11.1291 18.2523 11.1291ZM20.962 10.9084C20.8361 11.0345 20.6154 11.1291 20.3002 11.1291H19.2922V10.6565H20.3002C20.3948 10.6565 20.4579 10.6565 20.5209 10.5934C20.5523 10.5618 20.5839 10.4989 20.5839 10.4359C20.5839 10.3727 20.5523 10.31 20.5209 10.2784C20.4893 10.2469 20.4264 10.2154 20.3318 10.2154C19.8278 10.1838 19.229 10.2154 19.229 9.5223C19.229 9.22282 19.4003 8.9523 19.8229 8.87196C19.8734 8.86498 19.9268 8.8605 19.9853 8.8605H21.0251V9.39606H20.3318H20.0798H20.0483C19.9537 9.39606 19.8908 9.39606 19.8278 9.4276C19.7961 9.45918 19.7646 9.52226 19.7646 9.5852C19.7646 9.67977 19.7961 9.7113 19.8908 9.74257C19.9537 9.77415 20.0168 9.77415 20.0798 9.77415H20.1111H20.3633C20.501 9.77415 20.6051 9.79115 20.7004 9.82463C20.7877 9.85622 21.0766 9.98545 21.1413 10.3228C21.1469 10.3582 21.151 10.395 21.151 10.4359C21.151 10.625 21.088 10.7825 20.962 10.9084Z" fill="white"/>
</svg>
