<svg width="16" height="17" viewBox="0 0 16 17" fill="none" xmlns="http://www.w3.org/2000/svg">
<path d="M4.88965 14.3179C5.33449 15.3235 6.3412 16.0274 7.50974 16.0274C8.67828 16.0274 9.68495 15.3235 10.1298 14.3179H4.88965Z" fill="black"/>
<path d="M14.4486 13.2057H0.570756C0.308206 13.2057 0.067714 13.0286 0.0131056 12.7718C-0.0409467 12.5175 0.0749432 12.2665 0.31006 12.1579C0.365854 12.1217 0.785816 11.828 1.20626 10.9396C1.97845 9.308 2.14053 7.00967 2.14053 5.3689C2.14053 2.40844 4.54905 0 7.50947 0C10.4629 0 12.8669 2.39684 12.8784 5.34758C12.8786 5.35466 12.8788 5.36178 12.8788 5.3689C12.8788 7.00967 13.0409 9.308 13.8131 10.9396C14.2335 11.828 14.6534 12.1217 14.7092 12.1579C14.9444 12.2665 15.0603 12.5174 15.0062 12.7718C14.9516 13.0286 14.7111 13.2057 14.4486 13.2057Z" fill="black"/>
</svg>
