<svg width="20" height="20" viewBox="0 0 20 20" fill="none" xmlns="http://www.w3.org/2000/svg">
<path d="M18.75 19.9941H0.75C0.34 19.9941 0 19.6541 0 19.2441C0 18.8341 0.34 18.4941 0.75 18.4941H18.75C19.16 18.4941 19.5 18.8341 19.5 19.2441C19.5 19.6541 19.16 19.9941 18.75 19.9941Z" fill="black"/>
<path d="M16.7686 1.47381C14.8286 -0.46619 12.9286 -0.51619 10.9386 1.47381L9.72861 2.68381C9.62861 2.78381 9.58861 2.94381 9.62861 3.08381C10.3886 5.73381 12.5086 7.85381 15.1586 8.61381C15.1986 8.62381 15.2386 8.63381 15.2786 8.63381C15.3886 8.63381 15.4886 8.59381 15.5686 8.51381L16.7686 7.30381C17.7586 6.32381 18.2386 5.37381 18.2386 4.41381C18.2486 3.42381 17.7686 2.46381 16.7686 1.47381Z" fill="black"/>
<path d="M13.3603 9.52394C13.0703 9.38394 12.7903 9.24395 12.5203 9.08395C12.3003 8.95395 12.0903 8.81395 11.8803 8.66395C11.7103 8.55395 11.5103 8.39394 11.3203 8.23394C11.3003 8.22394 11.2303 8.16395 11.1503 8.08395C10.8203 7.80395 10.4503 7.44395 10.1203 7.04395C10.0903 7.02395 10.0403 6.95394 9.97032 6.86395C9.87032 6.74395 9.70032 6.54394 9.55032 6.31394C9.43032 6.16394 9.29032 5.94395 9.16032 5.72395C9.00032 5.45395 8.86032 5.18394 8.72032 4.90394C8.69913 4.85855 8.67864 4.81338 8.65876 4.76848C8.51119 4.43516 8.07655 4.33772 7.81879 4.59547L2.09032 10.3239C1.96032 10.4539 1.84032 10.7039 1.81032 10.8739L1.27032 14.7039C1.17032 15.3839 1.36032 16.0239 1.78032 16.4539C2.14032 16.8039 2.64032 16.9939 3.18032 16.9939C3.30032 16.9939 3.42032 16.9839 3.54032 16.9639L7.38032 16.4239C7.56032 16.3939 7.81032 16.2739 7.93032 16.1439L13.6516 10.4226C13.9112 10.1631 13.8133 9.71762 13.4757 9.57356C13.4377 9.55734 13.3992 9.54081 13.3603 9.52394Z" fill="black"/>
</svg>
