<svg width="15" height="15" viewBox="0 0 15 15" fill="none" xmlns="http://www.w3.org/2000/svg">
<path d="M5.3633 4.11719C4.94329 4.11719 4.61328 4.4547 4.61328 4.86721C4.61328 5.27971 4.95079 5.61722 5.3633 5.61722C5.77581 5.61722 6.11332 5.27971 6.11332 4.86721C6.11332 4.4547 5.77581 4.11719 5.3633 4.11719Z" fill="black"/>
<path d="M14.5953 2.28005C13.9653 0.817519 12.5778 0 10.6427 0H4.3576C1.95005 0 0 1.95005 0 4.3576V10.6427C0 12.5778 0.817519 13.9653 2.28005 14.5953C2.42256 14.6553 2.58756 14.6178 2.69256 14.5128L14.5128 2.69256C14.6253 2.58006 14.6628 2.41506 14.5953 2.28005ZM6.39765 7.68018C6.10514 7.96519 5.72263 8.10019 5.34013 8.10019C4.95762 8.10019 4.57511 7.95769 4.2826 7.68018C3.51758 6.96016 2.67756 5.81264 3.00007 4.4476C3.28508 3.21008 4.3801 2.65506 5.34013 2.65506C6.30015 2.65506 7.39517 3.21008 7.68018 4.4551C7.99519 5.81264 7.15517 6.96016 6.39765 7.68018Z" fill="black"/>
<path d="M13.1029 13.8972C13.2679 14.0622 13.2454 14.3323 13.0429 14.4448C12.3829 14.8123 11.5803 14.9998 10.6428 14.9998H4.35767C4.14017 14.9998 4.05016 14.7448 4.20017 14.5948L8.73028 10.0647C8.88028 9.91465 9.11278 9.91465 9.26279 10.0647L13.1029 13.8972Z" fill="black"/>
<path d="M15.0004 4.35767V10.6428C15.0004 11.5803 14.8129 12.3904 14.4454 13.0429C14.3329 13.2454 14.0629 13.2604 13.8979 13.1029L10.0578 9.26279C9.90781 9.11278 9.90781 8.88028 10.0578 8.73027L14.5879 4.20017C14.7454 4.05016 15.0004 4.14017 15.0004 4.35767Z" fill="black"/>
</svg>
