<svg width="25" height="25" viewBox="0 0 25 25" fill="none" xmlns="http://www.w3.org/2000/svg">
<path d="M8 11C9.65685 11 11 9.65685 11 8C11 6.34315 9.65685 5 8 5C6.34315 5 5 6.34315 5 8C5 9.65685 6.34315 11 8 11Z" fill="black"/>
<path d="M17.7375 0H7.2625C2.7125 0 0 2.7125 0 7.2625V17.7375C0 19.1 0.2375 20.2875 0.7 21.2875C1.775 23.6625 4.075 25 7.2625 25H17.7375C22.2875 25 25 22.2875 25 17.7375V14.875V7.2625C25 2.7125 22.2875 0 17.7375 0ZM22.9625 13.125C21.9875 12.2875 20.4125 12.2875 19.4375 13.125L14.2375 17.5875C13.2625 18.425 11.6875 18.425 10.7125 17.5875L10.2875 17.2375C9.4 16.4625 7.9875 16.3875 6.9875 17.0625L2.3125 20.2C2.0375 19.5 1.875 18.6875 1.875 17.7375V7.2625C1.875 3.7375 3.7375 1.875 7.2625 1.875H17.7375C21.2625 1.875 23.125 3.7375 23.125 7.2625V13.2625L22.9625 13.125Z" fill="black"/>
</svg>
