<svg width="11" height="13" viewBox="0 0 11 13" fill="none" xmlns="http://www.w3.org/2000/svg">
<path d="M10.5 2.71137C8.65 2.52804 6.78889 2.43359 4.93333 2.43359C3.83333 2.43359 2.73333 2.48915 1.63333 2.60026L0.5 2.71137" stroke="#FF0000" stroke-linecap="round" stroke-linejoin="round"/>
<path d="M3.55469 2.15L3.67691 1.42222C3.7658 0.894444 3.83246 0.5 4.77135 0.5H6.22691C7.1658 0.5 7.23802 0.916667 7.32135 1.42778L7.44358 2.15" stroke="#FF0000" stroke-linecap="round" stroke-linejoin="round"/>
<path d="M9.30642 4.46667L8.94531 10.0611C8.8842 10.9333 8.8342 11.6111 7.2842 11.6111H3.71753C2.16753 11.6111 2.11753 10.9333 2.05642 10.0611L1.69531 4.46667" stroke="#FF0000" stroke-linecap="round" stroke-linejoin="round"/>
<path d="M4.57031 8.55554H6.42031" stroke="#FF0000" stroke-linecap="round" stroke-linejoin="round"/>
<path d="M4.10938 6.33301H6.88715" stroke="#FF0000" stroke-linecap="round" stroke-linejoin="round"/>
</svg>
