<svg width="23" height="23" viewBox="0 0 23 23" fill="none" xmlns="http://www.w3.org/2000/svg">
<path d="M9.58333 22.8722C4.15278 21.9139 0 17.1861 0 11.5C0 5.175 5.175 0 11.5 0C17.825 0 23 5.175 23 11.5C23 17.1861 18.8472 21.9139 13.4167 22.8722L12.7778 22.3611H10.2222L9.58333 22.8722Z" fill="url(#paint0_linear_1_7833)"/>
<path d="M15.9709 14.6944L16.482 11.4999H13.4154V9.26383C13.4154 8.36939 13.7348 7.66661 15.1404 7.66661H16.6098V4.72772C15.7793 4.59995 14.8848 4.47217 14.0543 4.47217C11.4348 4.47217 9.58203 6.06939 9.58203 8.94439V11.4999H6.70703V14.6944H9.58203V22.8083C10.2209 22.9361 10.8598 22.9999 11.4987 22.9999C12.1376 22.9999 12.7765 22.9361 13.4154 22.8083V14.6944H15.9709Z" fill="white"/>
<defs>
<linearGradient id="paint0_linear_1_7833" x1="11.5" y1="22.2039" x2="11.5" y2="0" gradientUnits="userSpaceOnUse">
<stop stop-color="#0062E0"/>
<stop offset="1" stop-color="#19AFFF"/>
</linearGradient>
</defs>
</svg>
