<svg width="24" height="16" viewBox="0 0 24 16" fill="none" xmlns="http://www.w3.org/2000/svg">
<path d="M20.5 0H3.5C1.57 0 0 1.57 0 3.5V12.5C0 14.43 1.57 16 3.5 16H20.5C22.43 16 24 14.43 24 12.5V3.5C24 1.57 22.43 0 20.5 0Z" fill="#141414"/>
<path d="M9 13C6.243 13 4 10.757 4 8C4 5.243 6.243 3 9 3C11.757 3 14 5.243 14 8C14 10.757 11.757 13 9 13Z" fill="#EE2C3C"/>
<path d="M15 3C13.373 3 11.939 3.793 11.026 5H12.975C13.21 5.31 13.419 5.64 13.577 6H10.425C10.285 6.318 10.173 6.651 10.102 7H13.9C13.965 7.323 14 7.658 14 8H10C10 8.342 10.035 8.677 10.101 9H13.899C13.828 9.349 13.716 9.682 13.576 10H10.424C10.582 10.36 10.791 10.69 11.026 11H12.975C12.696 11.369 12.368 11.695 12 11.974C12.838 12.609 13.87 13 15 13C17.757 13 20 10.757 20 8C20 5.243 17.757 3 15 3Z" fill="#F99D3C"/>
<path d="M20.5 0H3.5C1.57 0 0 1.57 0 3.5V12.5C0 14.43 1.57 16 3.5 16H20.5C22.43 16 24 14.43 24 12.5V3.5C24 1.57 22.43 0 20.5 0Z" fill="url(#paint0_radial_1_15892)" fill-opacity="0.08"/>
<defs>
<radialGradient id="paint0_radial_1_15892" cx="0" cy="0" r="1" gradientUnits="userSpaceOnUse" gradientTransform="translate(3.512 2.056) scale(19.935)">
<stop stop-color="white"/>
<stop offset="1" stop-color="white" stop-opacity="0"/>
</radialGradient>
</defs>
</svg>
