<svg width="18" height="18" viewBox="0 0 18 18" fill="none" xmlns="http://www.w3.org/2000/svg">
<path d="M16.511 9.78349V14.5588C16.5674 14.9543 16.531 15.3575 16.4046 15.7365C16.2782 16.1155 16.0654 16.4599 15.7829 16.7424C15.5004 17.0249 15.156 17.2378 14.777 17.3642C14.398 17.4905 13.9947 17.527 13.5992 17.4705H11.0078C10.9305 17.4705 10.8565 17.4398 10.8019 17.3852C10.7473 17.3306 10.7166 17.2566 10.7166 17.1793V14.1919C10.728 13.7186 10.5733 13.2562 10.2793 12.8851C9.98538 12.514 9.5707 12.2576 9.10735 12.1605C8.82858 12.1129 8.54281 12.1267 8.26991 12.2009C7.99702 12.275 7.74357 12.4078 7.52721 12.5899C7.31084 12.772 7.13676 12.999 7.01709 13.2552C6.89741 13.5115 6.83502 13.7907 6.83424 14.0735V17.1793C6.83424 17.2566 6.80357 17.3306 6.74896 17.3852C6.69435 17.4398 6.62029 17.4705 6.54307 17.4705H3.89337C3.49786 17.527 3.09463 17.4905 2.71562 17.3642C2.33661 17.2378 1.99222 17.0249 1.70972 16.7424C1.42721 16.4599 1.21435 16.1155 1.08797 15.7365C0.9616 15.3575 0.925188 14.9543 0.981619 14.5588V9.78349C1.5585 10.0544 2.18841 10.1936 2.82573 10.1911C3.9057 10.1889 4.95413 9.82688 5.80542 9.16232C6.64276 9.82845 7.68116 10.1911 8.75115 10.1911C9.82114 10.1911 10.8595 9.82845 11.6969 9.16232C12.5482 9.82688 13.5966 10.1889 14.6766 10.1911C15.3107 10.1926 15.9372 10.0534 16.511 9.78349ZM4.37866 0C1.9522 0 1.58047 0.795879 1.18059 1.97805L0.171181 4.96066C-0.051351 5.572 -0.0570816 6.24124 0.154949 6.85631C0.36698 7.47137 0.783897 7.99492 1.33588 8.33926C1.78895 8.60018 2.3029 8.73678 2.82573 8.73526C3.45668 8.74186 4.07537 8.56087 4.60328 8.21527C5.1312 7.86966 5.54454 7.37501 5.79086 6.79409C6.04043 7.37067 6.4532 7.86166 6.97833 8.20658C7.50347 8.55149 8.11802 8.73527 8.74629 8.73527C9.37457 8.73527 9.98912 8.55149 10.5143 8.20658C11.0394 7.86166 11.4522 7.37067 11.7017 6.79409C11.948 7.37501 12.3614 7.86966 12.8893 8.21527C13.4172 8.56087 14.0359 8.74186 14.6669 8.73526C15.19 8.73696 15.7043 8.60034 16.1577 8.33926C16.7097 7.99492 17.1266 7.47137 17.3386 6.85631C17.5506 6.24124 17.5449 5.572 17.3224 4.96066L16.3169 1.97805C15.9121 0.795879 15.5404 0 13.1139 0H4.37866Z" fill="black"/>
</svg>
