<svg width="12" height="12" viewBox="0 0 12 12" fill="none" xmlns="http://www.w3.org/2000/svg">
<path d="M10.9122 4.23439C10.7631 4.08408 10.6791 3.88118 10.6783 3.66949V2.9561C10.6777 2.52241 10.5052 2.10666 10.1984 1.80005C9.89172 1.49343 9.47592 1.32099 9.04223 1.32055H8.32996C8.22506 1.32083 8.12115 1.30035 8.0242 1.26031C7.92725 1.22026 7.83918 1.16144 7.76505 1.08722L7.1566 0.478216C6.84958 0.171978 6.43364 0 6 0C5.56636 0 5.15042 0.171978 4.8434 0.478216L4.23495 1.08722C4.16087 1.16154 4.07282 1.22047 3.97587 1.26061C3.87891 1.30075 3.77498 1.32131 3.67004 1.32111H2.95721C2.52352 1.32155 2.10772 1.49399 1.801 1.8006C1.49428 2.10722 1.3217 2.52297 1.32111 2.95666V3.66949C1.32054 3.88096 1.23672 4.0837 1.08778 4.23383L0.478216 4.84284C0.171978 5.14986 0 5.5658 0 5.99944C0 6.43308 0.171978 6.84902 0.478216 7.15605L1.08778 7.76449C1.23685 7.9148 1.32086 8.1177 1.32167 8.3294V9.04279C1.32226 9.47648 1.49484 9.89222 1.80156 10.1988C2.10827 10.5054 2.52408 10.6779 2.95777 10.6783H3.67004C3.77498 10.6781 3.87891 10.6987 3.97587 10.7388C4.07282 10.779 4.16087 10.8379 4.23495 10.9122L4.8434 11.5212C5.15035 11.8276 5.56631 11.9997 6 11.9997C6.43369 11.9997 6.84965 11.8276 7.1566 11.5212L7.76505 10.9122C7.83913 10.8379 7.92718 10.779 8.02413 10.7388C8.12109 10.6987 8.22502 10.6781 8.32996 10.6783H9.04279C9.47648 10.6779 9.89228 10.5054 10.199 10.1988C10.5057 9.89222 10.6783 9.47648 10.6789 9.04279V8.3294C10.6794 8.1178 10.7634 7.91495 10.9128 7.76505L11.5218 7.15605C11.828 6.84902 12 6.43308 12 5.99944C12 5.5658 11.828 5.14986 11.5218 4.84284L10.9122 4.23439Z" fill="#2196F3"/>
<path d="M5.99837 9.76736C8.07932 9.76736 9.76626 8.08042 9.76626 5.99946C9.76626 3.91851 8.07932 2.23157 5.99837 2.23157C3.91741 2.23157 2.23047 3.91851 2.23047 5.99946C2.23047 8.08042 3.91741 9.76736 5.99837 9.76736Z" fill="#29B3FF"/>
<path d="M5.4426 7.53455C5.38761 7.53468 5.33314 7.5239 5.28235 7.50282C5.23157 7.48174 5.18547 7.45078 5.14675 7.41174L4.03033 6.29533C3.95638 6.21597 3.91612 6.111 3.91803 6.00254C3.91995 5.89408 3.96389 5.79059 4.04059 5.71389C4.1173 5.63718 4.22078 5.59325 4.32924 5.59133C4.4377 5.58942 4.54267 5.62968 4.62203 5.70363L5.4426 6.52364L7.37957 4.58722C7.45894 4.51327 7.56391 4.47301 7.67237 4.47492C7.78083 4.47683 7.88431 4.52077 7.96101 4.59748C8.03772 4.67418 8.08166 4.77766 8.08357 4.88612C8.08548 4.99458 8.04522 5.09955 7.97127 5.17892L5.73844 7.41174C5.69972 7.45078 5.65362 7.48174 5.60284 7.50282C5.55205 7.5239 5.49758 7.53468 5.4426 7.53455Z" fill="white"/>
</svg>
