<svg width="23" height="20" viewBox="0 0 23 20" fill="none" xmlns="http://www.w3.org/2000/svg">
<path d="M22.443 16.2423L12.5197 7.30345C12.3587 7.15854 12.2667 6.95077 12.2667 6.7338V6.57739C12.2667 6.27302 12.4292 6.00161 12.6707 5.90117C14.0117 5.34609 14.7707 3.95455 14.5185 2.517C14.3015 1.28033 13.2864 0.264465 12.049 0.0474922C11.1404 -0.111213 10.2235 0.131828 9.52807 0.716813C8.83269 1.30103 8.43324 2.15742 8.43324 3.06595C8.43324 3.48916 8.77595 3.83264 9.19993 3.83264C9.62391 3.83264 9.96662 3.48916 9.96662 3.06595C9.96662 2.61207 10.1667 2.18349 10.5148 1.89062C10.8675 1.59391 11.3175 1.47584 11.7844 1.55711C12.3871 1.66291 12.9023 2.17812 13.0081 2.78151C13.1361 3.50603 12.7566 4.20525 12.0858 4.48279C11.2639 4.82321 10.7333 5.6451 10.7333 6.57739V6.73456C10.7333 7.38548 11.0101 8.0088 11.4939 8.44352L21.4164 17.3824C21.4394 17.4031 21.4884 17.4468 21.4562 17.5311C21.4302 17.5986 21.3757 17.6331 21.2937 17.6331H1.7063C1.62503 17.6331 1.56983 17.5986 1.54376 17.5303C1.51156 17.4468 1.55986 17.4023 1.58363 17.3816L9.05656 10.6485C9.37167 10.3648 9.3962 9.88029 9.11329 9.56518C8.82962 9.24931 8.34354 9.22554 8.03073 9.50845L0.55703 16.2415C0.0372139 16.7092 -0.136825 17.4307 0.111583 18.0793C0.366124 18.7402 0.990976 19.1664 1.7063 19.1664H21.2945C22.0098 19.1664 22.6346 18.7402 22.8884 18.08C23.1368 17.4314 22.9628 16.71 22.443 16.2423Z" fill="black"/>
</svg>
