<svg width="17" height="14" viewBox="0 0 17 14" fill="none" xmlns="http://www.w3.org/2000/svg">
<path d="M9.92073 8.88223C9.49779 9.18463 9.00651 9.34449 8.5 9.34449C7.99352 9.34449 7.50225 9.18463 7.0793 8.88223L0.113189 3.90129C0.074541 3.87366 0.0368887 3.84485 0 3.81522V11.977C0 12.9128 0.708057 13.6555 1.56496 13.6555H15.435C16.3075 13.6555 17 12.8961 17 11.977V3.81519C16.963 3.84488 16.9253 3.87377 16.8865 3.90143L9.92073 8.88223Z" fill="black"/>
<path d="M0.665723 3.01236L7.63184 7.99333C7.89554 8.18189 8.19775 8.27615 8.49997 8.27615C8.80221 8.27615 9.10446 8.18185 9.36816 7.99333L16.3343 3.01236C16.7511 2.71448 17 2.21593 17 1.67786C17 0.752662 16.2982 0 15.4356 0H1.56443C0.701814 3.56104e-05 0 0.752698 0 1.67875C0 2.21593 0.248891 2.71448 0.665723 3.01236Z" fill="black"/>
</svg>
