<svg width="20" height="21" viewBox="0 0 20 21" fill="none" xmlns="http://www.w3.org/2000/svg">
<path fill-rule="evenodd" clip-rule="evenodd" d="M19.998 10.435C19.998 9.71152 19.9331 9.01586 19.8125 8.34802H10.2031V12.2947H15.6942C15.4577 13.5701 14.7388 14.6507 13.6582 15.3742V17.9342H16.9557C18.885 16.158 19.998 13.5423 19.998 10.435Z" fill="#4285F4"/>
<path fill-rule="evenodd" clip-rule="evenodd" d="M10.2037 20.406C12.9585 20.406 15.2681 19.4924 16.9563 17.9341L13.6588 15.3741C12.7452 15.9863 11.5765 16.348 10.2037 16.348C7.5463 16.348 5.297 14.5532 4.49467 12.1416H1.08594V14.7851C2.7648 18.1196 6.21527 20.406 10.2037 20.406Z" fill="#34A853"/>
<path fill-rule="evenodd" clip-rule="evenodd" d="M4.49396 12.1417C4.2899 11.5296 4.17396 10.8756 4.17396 10.2032C4.17396 9.5307 4.2899 8.87678 4.49396 8.2646V5.62109H1.08523C0.394207 6.9985 0 8.55678 0 10.2032C0 11.8496 0.394207 13.4078 1.08523 14.7853L4.49396 12.1417Z" fill="#FBBC05"/>
<path fill-rule="evenodd" clip-rule="evenodd" d="M10.2037 4.05802C11.7017 4.05802 13.0467 4.57281 14.1041 5.58383L17.0305 2.65742C15.2635 1.01103 12.9539 0 10.2037 0C6.21527 0 2.7648 2.2864 1.08594 5.62093L4.49467 8.26444C5.297 5.85282 7.5463 4.05802 10.2037 4.05802Z" fill="#EA4335"/>
</svg>
