<svg width="22" height="19" viewBox="0 0 22 19" fill="none" xmlns="http://www.w3.org/2000/svg">
<path d="M16.5 0H5.5C2.2 0 0 1.67647 0 5.58824V13.4118C0 17.3235 2.2 19 5.5 19H16.5C19.8 19 22 17.3235 22 13.4118V5.58824C22 1.67647 19.8 0 16.5 0ZM17.017 6.80647L13.574 9.60059C12.848 10.1929 11.924 10.4835 11 10.4835C10.076 10.4835 9.141 10.1929 8.426 9.60059L4.983 6.80647C4.631 6.51588 4.576 5.97941 4.851 5.62176C5.137 5.26412 5.654 5.19706 6.006 5.48765L9.449 8.28176C10.285 8.96353 11.704 8.96353 12.54 8.28176L15.983 5.48765C16.335 5.19706 16.863 5.25294 17.138 5.62176C17.424 5.97941 17.369 6.51588 17.017 6.80647Z" fill="black"/>
</svg>
