<svg width="21" height="21" viewBox="0 0 21 21" fill="none" xmlns="http://www.w3.org/2000/svg">
<path d="M1.01668 3.05041H19.317C19.5866 3.05041 19.8452 3.15752 20.0359 3.34819C20.2265 3.53885 20.3337 3.79745 20.3337 4.06709C20.3337 4.33673 20.2265 4.59533 20.0359 4.78599C19.8452 4.97666 19.5866 5.08377 19.317 5.08377H17.2836V17.284C17.2834 18.0928 16.962 18.8685 16.39 19.4404C15.8181 20.0124 15.0424 20.3338 14.2336 20.334H6.1001C5.29124 20.3338 4.51557 20.0124 3.94363 19.4404C3.37168 18.8685 3.05026 18.0928 3.05005 17.284V5.08377H1.01668C0.747042 5.08377 0.488443 4.97666 0.297779 4.78599C0.107113 4.59533 0 4.33673 0 4.06709C0 3.79745 0.107113 3.53885 0.297779 3.34819C0.488443 3.15752 0.747042 3.05041 1.01668 3.05041ZM11.1835 14.2339C11.1835 14.5036 11.2906 14.7622 11.4813 14.9528C11.672 15.1435 11.9306 15.2506 12.2002 15.2506C12.4698 15.2506 12.7284 15.1435 12.9191 14.9528C13.1098 14.7622 13.2169 14.5036 13.2169 14.2339V9.1505C13.2169 8.88086 13.1098 8.62227 12.9191 8.4316C12.7284 8.24094 12.4698 8.13382 12.2002 8.13382C11.9306 8.13382 11.672 8.24094 11.4813 8.4316C11.2906 8.62227 11.1835 8.88086 11.1835 9.1505V14.2339ZM7.11678 14.2339C7.11678 14.5036 7.2239 14.7622 7.41456 14.9528C7.60523 15.1435 7.86382 15.2506 8.13346 15.2506C8.40311 15.2506 8.6617 15.1435 8.85237 14.9528C9.04303 14.7622 9.15015 14.5036 9.15015 14.2339V9.1505C9.15015 8.88086 9.04303 8.62227 8.85237 8.4316C8.6617 8.24094 8.40311 8.13382 8.13346 8.13382C7.86382 8.13382 7.60523 8.24094 7.41456 8.4316C7.2239 8.62227 7.11678 8.88086 7.11678 9.1505V14.2339Z" fill="#FF0000"/>
<path d="M12.2004 2.03337H8.13366C7.86402 2.03337 7.60542 1.92625 7.41476 1.73559C7.22409 1.54492 7.11698 1.28632 7.11698 1.01668C7.11698 0.747042 7.22409 0.488445 7.41476 0.29778C7.60542 0.107114 7.86402 0 8.13366 0H12.2004C12.47 0 12.7286 0.107114 12.9193 0.29778C13.11 0.488445 13.2171 0.747042 13.2171 1.01668C13.2171 1.28632 13.11 1.54492 12.9193 1.73559C12.7286 1.92625 12.47 2.03337 12.2004 2.03337Z" fill="#FF0000"/>
</svg>
