<svg width="29" height="9" viewBox="0 0 29 9" fill="none" xmlns="http://www.w3.org/2000/svg">
<path d="M10.6338 8.56198L12.1068 0.276367H14.4083L12.9814 8.56198H10.6338Z" fill="#3C58BF"/>
<path d="M10.6338 8.56198L12.5211 0.276367H14.4083L12.9814 8.56198H10.6338Z" fill="#293688"/>
<path d="M21.3123 0.368249C20.852 0.184124 20.1155 0 19.1949 0C16.8933 0 15.2362 1.15078 15.2362 2.8079C15.2362 4.05074 16.387 4.69518 17.3076 5.10946C18.2282 5.52374 18.5044 5.79993 18.5044 6.16818C18.5044 6.72055 17.7679 6.99674 17.1235 6.99674C16.2028 6.99674 15.6965 6.85865 14.914 6.53643L14.5917 6.39833L14.2695 8.28561C14.8219 8.51577 15.8346 8.74592 16.8933 8.74592C19.333 8.74592 20.9441 7.59515 20.9441 5.84596C20.9441 4.87931 20.3456 4.14281 18.9647 3.5444C18.1362 3.13012 17.6298 2.89996 17.6298 2.48568C17.6298 2.11743 18.0441 1.74918 18.9647 1.74918C19.7472 1.74918 20.2996 1.88728 20.7139 2.0714L20.9441 2.16347L21.3123 0.368249Z" fill="#3C58BF"/>
<path d="M21.3123 0.368249C20.852 0.184124 20.1155 0 19.1949 0C16.8933 0 15.6505 1.15078 15.6505 2.8079C15.6505 4.05074 16.387 4.69518 17.3076 5.10946C18.2282 5.52374 18.5044 5.79993 18.5044 6.16818C18.5044 6.72055 17.7679 6.99674 17.1235 6.99674C16.2028 6.99674 15.6965 6.85865 14.914 6.53643L14.5917 6.39833L14.2695 8.28561C14.8219 8.51577 15.8346 8.74592 16.8933 8.74592C19.333 8.74592 20.9441 7.59515 20.9441 5.84596C20.9441 4.87931 20.3456 4.14281 18.9647 3.5444C18.1362 3.13012 17.6298 2.89996 17.6298 2.48568C17.6298 2.11743 18.0441 1.74918 18.9647 1.74918C19.7472 1.74918 20.2996 1.88728 20.7139 2.0714L20.9441 2.16347L21.3123 0.368249Z" fill="#293688"/>
<path d="M25.2712 0.276123C24.7188 0.276123 24.3046 0.322155 24.0744 0.874529L20.6221 8.56174H23.1078L23.5681 7.1808H26.5141L26.7902 8.56174H28.9997L27.0664 0.276123H25.2712ZM24.2125 5.79986C24.3506 5.38558 25.1331 3.36021 25.1331 3.36021C25.1331 3.36021 25.3173 2.85387 25.4553 2.53165L25.5934 3.31418C25.5934 3.31418 26.0538 5.38559 26.1458 5.8459H24.2125V5.79986Z" fill="#3C58BF"/>
<path d="M25.8236 0.276123C25.2712 0.276123 24.8569 0.322155 24.6268 0.874529L20.6221 8.56174H23.1078L23.5681 7.1808H26.5141L26.7902 8.56174H28.9997L27.0664 0.276123H25.8236ZM24.2125 5.79986C24.3966 5.33955 25.1331 3.36021 25.1331 3.36021C25.1331 3.36021 25.3173 2.85387 25.4553 2.53165L25.5934 3.31418C25.5934 3.31418 26.0538 5.38559 26.1458 5.8459H24.2125V5.79986Z" fill="#293688"/>
<path d="M6.39863 6.07616L6.16847 4.87935C5.75419 3.49842 4.41929 1.97939 2.94629 1.24289L5.01769 8.60788H7.50338L11.2319 0.322266H8.74622L6.39863 6.07616Z" fill="#3C58BF"/>
<path d="M6.39863 6.07616L6.16847 4.87935C5.75419 3.49842 4.41929 1.97939 2.94629 1.24289L5.01769 8.60788H7.50338L11.2319 0.322266H9.20653L6.39863 6.07616Z" fill="#293688"/>
<path d="M0 0.276123L0.414281 0.368186C3.36028 1.05865 5.38565 2.80784 6.16818 4.87924L5.33962 0.966591C5.20152 0.414217 4.78724 0.276123 4.2809 0.276123H0Z" fill="#FFBC00"/>
<path d="M0 0.276123C2.946 0.966591 5.38565 2.76181 6.16818 4.83321L5.38565 1.565C5.24756 1.01262 4.78724 0.690404 4.2809 0.690404L0 0.276123Z" fill="#F7981D"/>
<path d="M0 0.276123C2.946 0.966591 5.38565 2.76181 6.16818 4.83321L5.6158 3.03799C5.47771 2.48562 5.29359 1.93325 4.64915 1.70309L0 0.276123Z" fill="#ED7C00"/>
<path d="M8.70005 5.80014L7.13499 4.23508L6.39849 5.98427L6.21437 4.83349C5.80009 3.45255 4.46519 1.93352 2.99219 1.19702L5.06359 8.56201H7.54927L8.70005 5.80014Z" fill="#051244"/>
<path d="M12.9814 8.56199L11.002 6.53662L10.6338 8.56199H12.9814Z" fill="#051244"/>
<path d="M18.2742 5.70801C18.4584 5.89213 18.5504 6.03023 18.5044 6.21435C18.5044 6.76673 17.7679 7.04291 17.1235 7.04291C16.2028 7.04291 15.6965 6.90482 14.914 6.5826L14.5917 6.44451L14.2695 8.33179C14.8219 8.56194 15.8346 8.7921 16.8933 8.7921C18.3663 8.7921 19.5631 8.37782 20.2536 7.64132L18.2742 5.70801Z" fill="#051244"/>
<path d="M20.9443 8.56207H23.1078L23.5681 7.18113H26.5141L26.7903 8.56207H28.9998L28.2173 5.20179L25.4554 2.53198L25.5935 3.26848C25.5935 3.26848 26.0538 5.33988 26.1459 5.8002H24.2125C24.3967 5.33988 25.1332 3.36054 25.1332 3.36054C25.1332 3.36054 25.3173 2.8542 25.4554 2.53198" fill="#051244"/>
</svg>
