<svg width="22" height="22" viewBox="0 0 22 22" fill="none" xmlns="http://www.w3.org/2000/svg">
<path d="M11.001 0C8.01358 0 7.63866 0.0130632 6.46532 0.0664612C5.29426 0.120088 4.49492 0.305492 3.7955 0.577524C3.07201 0.858493 2.4583 1.23434 1.84687 1.84601C1.23499 2.45745 0.859155 3.07119 0.577277 3.79447C0.304565 4.49414 0.118939 5.29374 0.0662298 6.46437C0.01375 7.63775 0 8.01291 0 11.0004C0 13.988 0.013292 14.3618 0.0664592 15.5352C0.120314 16.7062 0.305712 17.5056 0.577506 18.2051C0.858697 18.9286 1.23453 19.5423 1.84619 20.1537C2.45738 20.7656 3.07109 21.1424 3.79412 21.4234C4.49401 21.6954 5.29358 21.8808 6.4644 21.9344C7.63775 21.9878 8.01244 22.0009 10.9997 22.0009C13.9873 22.0009 14.3611 21.9878 15.5345 21.9344C16.7055 21.8808 17.5058 21.6954 18.2056 21.4234C18.9289 21.1424 19.5417 20.7656 20.1529 20.1537C20.7648 19.5423 21.1406 18.9286 21.4225 18.2053C21.6929 17.5056 21.8785 16.706 21.9335 15.5354C21.9862 14.362 22 13.988 22 11.0004C22 8.01291 21.9862 7.63798 21.9335 6.4646C21.8785 5.29351 21.6929 4.49414 21.4225 3.7947C21.1406 3.07119 20.7648 2.45745 20.1529 1.84601C19.541 1.23411 18.9291 0.858264 18.205 0.577524C17.5037 0.305492 16.7039 0.120088 15.5328 0.0664612C14.3595 0.0130632 13.986 0 10.9976 0H11.001ZM10.0142 1.98237C10.3071 1.98191 10.6339 1.98237 11.001 1.98237C13.9381 1.98237 14.2862 1.99291 15.446 2.04562C16.5185 2.09467 17.1006 2.27388 17.4883 2.42445C18.0017 2.62384 18.3677 2.86218 18.7524 3.24719C19.1374 3.63221 19.3758 3.99889 19.5756 4.51225C19.7262 4.89955 19.9056 5.48166 19.9544 6.5542C20.0071 7.71383 20.0186 8.06218 20.0186 10.9979C20.0186 13.9337 20.0071 14.282 19.9544 15.4416C19.9054 16.5142 19.7262 17.0963 19.5756 17.4836C19.3762 17.997 19.1374 18.3625 18.7524 18.7473C18.3674 19.1323 18.0019 19.3706 17.4883 19.57C17.1011 19.7213 16.5185 19.9 15.446 19.9491C14.2864 20.0018 13.9381 20.0133 11.001 20.0133C8.06377 20.0133 7.71566 20.0018 6.55607 19.9491C5.48356 19.8996 4.90147 19.7204 4.51348 19.5698C4.00015 19.3704 3.63348 19.1321 3.24847 18.7471C2.86347 18.362 2.62513 17.9963 2.4253 17.4827C2.27473 17.0954 2.09529 16.5133 2.04648 15.4407C1.99377 14.2811 1.98323 13.9328 1.98323 10.9952C1.98323 8.0576 1.99377 7.71108 2.04648 6.55145C2.09552 5.47891 2.27473 4.8968 2.4253 4.50904C2.62467 3.99568 2.86347 3.629 3.24847 3.24399C3.63348 2.85897 4.00015 2.62063 4.51348 2.42079C4.90124 2.26953 5.48356 2.09077 6.55607 2.0415C7.57083 1.99566 7.96408 1.98191 10.0142 1.97962V1.98237ZM16.8728 3.8089C16.144 3.8089 15.5528 4.39949 15.5528 5.1285C15.5528 5.85728 16.144 6.44855 16.8728 6.44855C17.6016 6.44855 18.1928 5.85728 18.1928 5.1285C18.1928 4.39972 17.6016 3.80845 16.8728 3.80845V3.8089ZM11.001 5.35126C7.88135 5.35126 5.35201 7.88067 5.35201 11.0004C5.35201 14.1202 7.88135 16.6485 11.001 16.6485C14.1207 16.6485 16.6491 14.1202 16.6491 11.0004C16.6491 7.88067 14.1205 5.35126 11.0008 5.35126H11.001ZM11.001 7.33363C13.026 7.33363 14.6677 8.97522 14.6677 11.0004C14.6677 13.0254 13.026 14.6673 11.001 14.6673C8.97586 14.6673 7.33433 13.0254 7.33433 11.0004C7.33433 8.97522 8.97586 7.33363 11.001 7.33363Z" fill="url(#paint0_radial_1_1051)"/>
<path d="M11.001 0C8.01358 0 7.63866 0.0130632 6.46532 0.0664612C5.29426 0.120088 4.49492 0.305492 3.7955 0.577524C3.07201 0.858493 2.4583 1.23434 1.84687 1.84601C1.23499 2.45745 0.859155 3.07119 0.577277 3.79447C0.304565 4.49414 0.118939 5.29374 0.0662298 6.46437C0.01375 7.63775 0 8.01291 0 11.0004C0 13.988 0.013292 14.3618 0.0664592 15.5352C0.120314 16.7062 0.305712 17.5056 0.577506 18.2051C0.858697 18.9286 1.23453 19.5423 1.84619 20.1537C2.45738 20.7656 3.07109 21.1424 3.79412 21.4234C4.49401 21.6954 5.29358 21.8808 6.4644 21.9344C7.63775 21.9878 8.01244 22.0009 10.9997 22.0009C13.9873 22.0009 14.3611 21.9878 15.5345 21.9344C16.7055 21.8808 17.5058 21.6954 18.2056 21.4234C18.9289 21.1424 19.5417 20.7656 20.1529 20.1537C20.7648 19.5423 21.1406 18.9286 21.4225 18.2053C21.6929 17.5056 21.8785 16.706 21.9335 15.5354C21.9862 14.362 22 13.988 22 11.0004C22 8.01291 21.9862 7.63798 21.9335 6.4646C21.8785 5.29351 21.6929 4.49414 21.4225 3.7947C21.1406 3.07119 20.7648 2.45745 20.1529 1.84601C19.541 1.23411 18.9291 0.858264 18.205 0.577524C17.5037 0.305492 16.7039 0.120088 15.5328 0.0664612C14.3595 0.0130632 13.986 0 10.9976 0H11.001ZM10.0142 1.98237C10.3071 1.98191 10.6339 1.98237 11.001 1.98237C13.9381 1.98237 14.2862 1.99291 15.446 2.04562C16.5185 2.09467 17.1006 2.27388 17.4883 2.42445C18.0017 2.62384 18.3677 2.86218 18.7524 3.24719C19.1374 3.63221 19.3758 3.99889 19.5756 4.51225C19.7262 4.89955 19.9056 5.48166 19.9544 6.5542C20.0071 7.71383 20.0186 8.06218 20.0186 10.9979C20.0186 13.9337 20.0071 14.282 19.9544 15.4416C19.9054 16.5142 19.7262 17.0963 19.5756 17.4836C19.3762 17.997 19.1374 18.3625 18.7524 18.7473C18.3674 19.1323 18.0019 19.3706 17.4883 19.57C17.1011 19.7213 16.5185 19.9 15.446 19.9491C14.2864 20.0018 13.9381 20.0133 11.001 20.0133C8.06377 20.0133 7.71566 20.0018 6.55607 19.9491C5.48356 19.8996 4.90147 19.7204 4.51348 19.5698C4.00015 19.3704 3.63348 19.1321 3.24847 18.7471C2.86347 18.362 2.62513 17.9963 2.4253 17.4827C2.27473 17.0954 2.09529 16.5133 2.04648 15.4407C1.99377 14.2811 1.98323 13.9328 1.98323 10.9952C1.98323 8.0576 1.99377 7.71108 2.04648 6.55145C2.09552 5.47891 2.27473 4.8968 2.4253 4.50904C2.62467 3.99568 2.86347 3.629 3.24847 3.24399C3.63348 2.85897 4.00015 2.62063 4.51348 2.42079C4.90124 2.26953 5.48356 2.09077 6.55607 2.0415C7.57083 1.99566 7.96408 1.98191 10.0142 1.97962V1.98237ZM16.8728 3.8089C16.144 3.8089 15.5528 4.39949 15.5528 5.1285C15.5528 5.85728 16.144 6.44855 16.8728 6.44855C17.6016 6.44855 18.1928 5.85728 18.1928 5.1285C18.1928 4.39972 17.6016 3.80845 16.8728 3.80845V3.8089ZM11.001 5.35126C7.88135 5.35126 5.35201 7.88067 5.35201 11.0004C5.35201 14.1202 7.88135 16.6485 11.001 16.6485C14.1207 16.6485 16.6491 14.1202 16.6491 11.0004C16.6491 7.88067 14.1205 5.35126 11.0008 5.35126H11.001ZM11.001 7.33363C13.026 7.33363 14.6677 8.97522 14.6677 11.0004C14.6677 13.0254 13.026 14.6673 11.001 14.6673C8.97586 14.6673 7.33433 13.0254 7.33433 11.0004C7.33433 8.97522 8.97586 7.33363 11.001 7.33363Z" fill="url(#paint1_radial_1_1051)"/>
<defs>
<radialGradient id="paint0_radial_1_1051" cx="0" cy="0" r="1" gradientUnits="userSpaceOnUse" gradientTransform="translate(5.84378 23.6954) rotate(-90) scale(21.8045 20.2791)">
<stop stop-color="#FFDD55"/>
<stop offset="0.1" stop-color="#FFDD55"/>
<stop offset="0.5" stop-color="#FF543E"/>
<stop offset="1" stop-color="#C837AB"/>
</radialGradient>
<radialGradient id="paint1_radial_1_1051" cx="0" cy="0" r="1" gradientTransform="matrix(1.91298 9.55712 -39.3924 7.88997 -3.68512 1.58491)" gradientUnits="userSpaceOnUse">
<stop stop-color="#9C9C9C"/>
<stop offset="0.128" stop-color="#3771C8"/>
<stop offset="1" stop-color="#6600FF" stop-opacity="0"/>
</radialGradient>
</defs>
</svg>
