<svg width="16" height="16" viewBox="0 0 16 16" fill="none" xmlns="http://www.w3.org/2000/svg">
<path d="M0.0724163 0.411636C0.131775 0.288419 0.224674 0.184436 0.340452 0.111625C0.45623 0.0388136 0.590193 0.000124932 0.726963 5.12396e-08H15.2725C15.4095 -5.13812e-05 15.5438 0.0386177 15.6598 0.111551C15.7758 0.184485 15.8689 0.288715 15.9282 0.412231C15.9876 0.535747 16.0108 0.673523 15.9953 0.809681C15.9798 0.94584 15.9261 1.07484 15.8405 1.18182L10.1815 8.25527V15.2727C10.1816 15.4166 10.139 15.5572 10.0591 15.6768C9.97921 15.7964 9.86567 15.8896 9.7328 15.9447C9.64456 15.9815 9.54986 16.0003 9.45426 16C9.26139 16 9.07643 15.9233 8.94007 15.7869L6.03098 12.8778C5.89458 12.7415 5.81793 12.5565 5.81788 12.3636V8.25527L0.158961 1.18182C0.073391 1.07466 0.0198622 0.945491 0.00454903 0.809216C-0.0107651 0.672941 0.012763 0.535114 0.0724163 0.411636Z" fill="black"/>
</svg>
