<svg width="22" height="19" viewBox="0 0 22 19" fill="none" xmlns="http://www.w3.org/2000/svg">
<path d="M14.1131 9.02922C14.1131 11.0092 12.5131 12.6092 10.5331 12.6092C8.55312 12.6092 6.95312 11.0092 6.95312 9.02922C6.95312 7.04922 8.55312 5.44922 10.5331 5.44922C12.5131 5.44922 14.1131 7.04922 14.1131 9.02922Z" stroke="#A9A9A9" stroke-width="1.5" stroke-linecap="round" stroke-linejoin="round"/>
<path d="M10.535 17.3C14.065 17.3 17.355 15.22 19.645 11.62C20.545 10.21 20.545 7.84 19.645 6.43C17.355 2.83 14.065 0.75 10.535 0.75C7.005 0.75 3.715 2.83 1.425 6.43C0.525 7.84 0.525 10.21 1.425 11.62C3.715 15.22 7.005 17.3 10.535 17.3Z" stroke="#A9A9A9" stroke-width="1.5" stroke-linecap="round" stroke-linejoin="round"/>
</svg>
